{"title":"Sodrásban aka The Current (1964) - István Ga&amp;aacut","uid":9733778,"size":1244400711,"categoryP":"video","categoryS":"movies","magnet":"?xt=urn:btih:9e4e464114534d4c949d95b286ffe45f8ba69497&amp;dn=Sodr%26aacute%3Bsban+aka+The+Current+%281964%29+-+Istv%26aacute%3Bn+Ga%26aacut&amp;tr=udp%3A%2F%2Ftracker.openbittorrent.com%3A80&amp;tr=udp%3A%2F%2Fopen.demonii.com%3A1337&amp;tr=udp%3A%2F%2Ftracker.coppersurfer.tk%3A6969&amp;tr=udp%3A%2F%2Fexodus.desync.com%3A6969","seeders":2,"leechers":0,"uploader":"cavallone","files":1,"time":1394418814,"description":"Plot: A hot summer day six young men and two young women meet at the beach beside a deep river. After a while they go for a swim. At a point where the river is 8 meters deep, one of the boys gets the idea of diving to the bottom, and to bring up a handful of clay as a proof of the feat. The others follow his example. Back on dry land one of the girls suddenly wonders where Gabi is. When they figure out that no one has seen him coming up from the river, they get worried. Gabi's clothes are still on the beach, and they start searching for him along the banks and in the water. Finally they have to call the police, who start dragging the river. The corpse isn't found, and the following days Gabi's friends display different reactions to the loss. Some had unsettled matters with him, which now never can be solved. Some have already started to forget his face. At the third day the body is found. Summer is gone, and the circle of friends disbands. Some go to a bigger city for studies, while others have to stay in the small town and work. Left alone in inconsolable grief is Gabi's grandmother. Gabi's father died a long time ago, and now she has lost also her grandson, her only remaining support and joy in life.\n\n\nRip Specs:\n\n\nFormat                                   : Matroska\nFormat version                           : Version 2\nFile size                                : 1.16 GiB\nDuration                                 : 1h 20mn\nOverall bit rate                         : 2 050 Kbps\nWriting application                      : HandBrake 0.9.9\nWriting library                          : libmkv 0.6.5\n\nVideo\nID                                       : 1\nFormat                                   : AVC\nFormat/Info                              : Advanced Video Codec\nFormat profile                           : &lt;a class=&quot;__cf_email__&quot; href=&quot;/cdn-cgi/l/email-protection&quot; data-cfemail=&quot;3f775658577f730b110f&quot;&gt;[email&amp;#160;protected]&lt;/a&gt;&lt;script cf-hash='f9e31' type=&quot;text/javascript&quot;&gt;\n/* &lt;![CDATA[ */!function(){try{var t=&quot;currentScript&quot;in document?document.currentScript:function(){for(var t=document.getElementsByTagName(&quot;script&quot;),e=t.length;e--;)if(t[e].getAttribute(&quot;cf-hash&quot;))return t[e]}();if(t&amp;&amp;t.previousSibling){var e,r,n,i,c=t.previousSibling,a=c.getAttribute(&quot;data-cfemail&quot;);if(a){for(e=&quot;&quot;,r=parseInt(a.substr(0,2),16),n=2;a.length-n;n+=2)i=parseInt(a.substr(n,2),16)^r,e+=String.fromCharCode(i);e=document.createTextNode(e),c.parentNode.replaceChild(e,c)}}}catch(u){}}();/* ]]&gt; */&lt;/script&gt;\nFormat settings, CABAC                   : Yes\nFormat settings, ReFrames                : 8 frames\nCodec ID                                 : V_MPEG4/ISO/AVC\nDuration                                 : 1h 20mn\nBit rate                                 : 1 850 Kbps\nWidth                                    : 720 pixels\nHeight                                   : 460 pixels\nDisplay aspect ratio                     : 16:10\nOriginal display aspect ratio            : 16:10\nFrame rate mode                          : Constant\nFrame rate                               : 25.000 fps\nColor space                              : YUV\nChroma subsampling                       : 4:2:0\nBit depth                                : 8 bits\nScan type                                : Progressive\nBits/(Pixel*Frame)                       : 0.223\nStream size                              : 1.03 GiB (89%)\nWriting library                          : x264 core 130 r2273 b3065e6\nEncoding settings                        : cabac=1 / ref=8 / deblock=1:-3:-3 / analyse=0x3:0x133 / me=umh / subme=11 / psy=1 / psy_rd=1.00:0.20 / mixed_ref=1 / me_range=24 / chroma_me=1 / trellis=2 / 8x8dct=1 / cqm=0 / deadzone=21,11 / fast_pskip=1 / chroma_qp_offset=-3 / threads=18 / lookahead_threads=2 / sliced_threads=0 / nr=0 / decimate=1 / interlaced=0 / bluray_compat=0 / constrained_intra=0 / bframes=6 / b_pyramid=2 / b_adapt=2 / b_bias=0 / direct=3 / weightb=1 / open_gop=0 / weightp=2 / keyint=250 / keyint_min=25 / scenecut=40 / intra_refresh=0 / rc_lookahead=50 / rc=2pass / mbtree=1 / bitrate=1850 / ratetol=1.0 / qcomp=0.60 / qpmin=0 / qpmax=69 / qpstep=4 / cplxblur=20.0 / qblur=0.5 / vbv_maxrate=25000 / vbv_bufsize=31250 / nal_hrd=none / ip_ratio=1.40 / aq=1:1.00\nLanguage                                 : English\nDefault                                  : Yes\nForced                                   : No\nColor primaries                          : BT.601 PAL\nTransfer characteristics                 : BT.709\nMatrix coefficients                      : BT.601\n\nAudio\nID                                       : 2\nFormat                                   : AC-3\nFormat/Info                              : Audio Coding 3\nMode extension                           : CM (complete main)\nFormat settings, Endianness              : Big\nCodec ID                                 : A_AC3\nDuration                                 : 1h 20mn\nBit rate mode                            : Constant\nBit rate                                 : 192 Kbps\nChannel(s)                               : 2 channels\nChannel positions                        : Front: L R\nSampling rate                            : 48.0 KHz\nBit depth                                : 16 bits\nCompression mode                         : Lossy\nStream size                              : 111 MiB (9%)\nLanguage                                 : Hungarian\nDefault                                  : Yes\nForced                                   : No\n\nText\nID                                       : 3\nFormat                                   : VobSub\nCodec ID                                 : S_VOBSUB\nCodec ID/Info                            : The same subtitle format used on DVDs\nLanguage                                 : English\nDefault                                  : No\nForced                                   : No\n\nMenu\n00:00:00.000                             : Chapter 1\n00:06:07.640                             : Chapter 2\n00:14:44.520                             : Chapter 3\n00:23:22.440                             : Chapter 4\n00:31:13.040                             : Chapter 5\n00:40:26.320                             : Chapter 6\n00:49:57.280                             : Chapter 7\n00:55:34.240                             : Chapter 8\n01:00:36.880                             : Chapter 9\n01:08:02.520                             : Chapter 10\n01:13:43.640                             : Chapter 11\n01:20:14.680                             : Chapter 12\n\n\nThanks to Mfcorrea for the rip.","torrent":{"xt":"urn:btih:9e4e464114534d4c949d95b286ffe45f8ba69497","amp;dn":"Sodr%26aacute%3Bsban+aka+The+Current+%281964%29+-+Istv%26aacute%3Bn+Ga%26aacut","amp;tr":["udp%3A%2F%2Ftracker.openbittorrent.com%3A80","udp%3A%2F%2Fopen.demonii.com%3A1337","udp%3A%2F%2Ftracker.coppersurfer.tk%3A6969","udp%3A%2F%2Fexodus.desync.com%3A6969"],"infoHash":"9e4e464114534d4c949d95b286ffe45f8ba69497","infoHashBuffer":{"type":"Buffer","data":[158,78,70,65,20,83,77,76,148,157,149,178,134,255,228,95,139,166,148,151]},"announce":[],"urlList":[]}}